PathFileType	4	(X/Y/Z)	C:/Users/opensim2020/Desktop/walking_exp_matlab/subject03_walking04_straight_01.trc	
DataRate	CameraRate	NumFrames	NumMarkers	Units	OrigDataRate	OrigDataStartFrame	OrigNumFrames	
100.00	100.00	8	51	mm	100.00	835	265	
Frame#	Time	LFHD			RFHD			LBHD			RBHD			C7			T10			CLAV			STRN			RBAK			LSHO			LUPA			LELB			LFRM			LWRA			LWRB			LFIN			RSHO			RUPA			RELB			RFRM			RWRA			RWRB			RFIN			LASI			RASI			LPSI			RPSI			LTHI			LKNE			LTIB			LANK			LHEE			LTOE			RTHI			RKNE			RTIB			RANK			RHEE			RTOE			*39			*40			*41			*42			*43			*44			*45			*46			*47			*48			*49			*50			
		X1	Y1	Z1	X2	Y2	Z2	X3	Y3	Z3	X4	Y4	Z4	X5	Y5	Z5	X6	Y6	Z6	X7	Y7	Z7	X8	Y8	Z8	X9	Y9	Z9	X10	Y10	Z10	X11	Y11	Z11	X12	Y12	Z12	X13	Y13	Z13	X14	Y14	Z14	X15	Y15	Z15	X16	Y16	Z16	X17	Y17	Z17	X18	Y18	Z18	X19	Y19	Z19	X20	Y20	Z20	X21	Y21	Z21	X22	Y22	Z22	X23	Y23	Z23	X24	Y24	Z24	X25	Y25	Z25	X26	Y26	Z26	X27	Y27	Z27	X28	Y28	Z28	X29	Y29	Z29	X30	Y30	Z30	X31	Y31	Z31	X32	Y32	Z32	X33	Y33	Z33	X34	Y34	Z34	X35	Y35	Z35	X36	Y36	Z36	X37	Y37	Z37	X38	Y38	Z38	X39	Y39	Z39	X40	Y40	Z40	X41	Y41	Z41	X42	Y42	Z42	X43	Y43	Z43	X44	Y44	Z44	X45	Y45	Z45	X46	Y46	Z46	X47	Y47	Z47	X48	Y48	Z48	X49	Y49	Z49	X50	Y50	Z50	X51	Y51	Z51	

100	0.990	-1251.94543	-473.93405	1623.03064	-1121.31433	-500.04663	1632.56311	-1270.33447	-597.14325	1569.32874	-1140.63245	-618.15704	1578.50305	-1208.28979	-628.19806	1415.26013	-1202.29114	-651.78284	1101.64124	-1189.54980	-506.19250	1342.23621	-1188.90698	-456.50143	1178.07947	-1116.86414	-687.48511	1239.00720	-1350.25464	-531.98163	1377.28052	-1420.86060	-509.94370	1182.28149	-1431.38770	-480.77090	1063.12048	-1423.87000	-429.83047	942.97083	-1389.03430	-393.70599	830.63885	-1442.92566	-407.25287	832.89063	-1432.44836	-372.73157	757.71832	-1037.45422	-573.04211	1366.84119	-966.26318	-575.37799	1143.29895	-953.20490	-557.07587	1031.80994	-952.23029	-532.32159	897.11169	-986.35504	-491.79932	805.27112	-946.48047	-527.22223	796.81073	-955.08105	-498.65054	727.94354	-1309.77759	-480.84967	938.97906	-1071.13513	-489.33368	942.09894	-1264.39917	-644.76862	963.71765	-1115.14429	-647.97821	967.32275	-1335.76550	-543.98505	636.08368	-1284.40295	-550.92389	461.68753	-1281.52454	-610.01587	272.70914	-1231.18188	-637.93506	66.57948	-1196.42981	-679.84204	34.23597	-1203.84912	-486.53964	28.74450	-1024.88074	-467.73590	652.89240	-1052.32751	-396.30438	487.41208	-1041.16650	-484.00488	316.55551	-1074.67700	-583.82520	123.23930	-1123.37122	-640.21057	104.25005	-1094.13733	-468.49399	45.06213																																				 
101	1.000	-1251.37964	-465.69260	1622.75842	-1120.69836	-492.07245	1631.71326	-1270.20300	-588.87433	1569.15906	-1140.48816	-610.11664	1577.81763	-1208.61829	-620.02502	1414.67334	-1202.42664	-643.40656	1101.04480	-1190.04163	-497.99814	1341.67163	-1189.78406	-448.08755	1177.61511	-1117.38794	-679.21588	1238.23010	-1350.63757	-524.13037	1376.88379	-1421.82605	-500.03497	1182.57544	-1432.62524	-468.86789	1063.96240	-1424.57458	-414.78207	945.28766	-1389.03418	-374.99435	834.56354	-1442.79773	-389.04547	835.73523	-1431.79089	-352.04132	761.87738	-1037.93933	-564.75116	1366.06238	-966.48877	-567.99060	1142.57056	-953.36560	-550.58246	1030.98511	-952.31372	-526.96008	896.12897	-986.43042	-487.37778	803.90863	-946.46191	-522.75397	795.72455	-955.31293	-495.11893	726.52704	-1310.18237	-472.72260	938.74603	-1071.65955	-480.64941	942.06262	-1264.08911	-636.65381	963.04523	-1114.96057	-639.40991	966.88019	-1335.40295	-538.52594	635.80597	-1284.33203	-547.75964	461.38290	-1281.51978	-608.61908	273.07382	-1231.11926	-637.85260	66.95673	-1195.96729	-680.12616	34.90969	-1203.94019	-486.39322	28.80386	-1025.12341	-456.83224	652.96991	-1053.58362	-384.41687	488.35440	-1042.39832	-464.73038	313.62170	-1076.13733	-554.70892	115.39491	-1125.19934	-609.93903	93.56112	-1096.90649	-435.58997	43.35294																																				 
102	1.010	-1250.76062	-457.37408	1622.35437	-1120.16174	-483.88715	1630.77576	-1270.09863	-580.54272	1568.85254	-1140.36243	-601.97003	1576.87561	-1208.89856	-611.73883	1413.97217	-1202.44360	-635.00922	1100.36938	-1190.44324	-489.77173	1340.92371	-1190.42834	-439.69730	1176.91455	-1117.89026	-670.82379	1237.41919	-1351.00366	-516.18610	1376.36230	-1422.74988	-490.14337	1182.72363	-1433.81018	-457.15237	1064.62781	-1425.36060	-399.87836	947.65936	-1389.05957	-356.48373	838.65479	-1442.58484	-371.12561	838.65460	-1430.98364	-331.68762	766.14478	-1038.13196	-556.42633	1365.28223	-966.66241	-560.50592	1141.74707	-953.50220	-543.94562	1030.07080	-952.37115	-521.53613	895.00146	-986.71106	-483.10287	802.40265	-946.46063	-518.12372	794.57202	-955.65002	-491.32581	724.98059	-1310.41931	-465.03116	938.28503	-1072.20850	-471.95880	941.83466	-1263.76721	-628.58850	962.50391	-1114.72229	-630.84589	966.35388	-1335.39075	-533.14087	635.56720	-1284.35449	-544.49194	461.10037	-1281.47559	-607.17725	273.38034	-1231.04761	-637.75500	67.31985	-1195.95251	-679.77655	35.11998	-1203.97925	-486.23285	28.81000	-1025.49072	-446.48160	653.06433	-1054.83740	-373.24539	488.97955	-1043.66382	-445.78781	310.75992	-1078.20825	-525.43628	108.12836	-1126.73596	-579.79163	83.94316	-1099.65576	-402.62344	42.16212																																				 
103	1.020	-1250.21973	-449.09265	1621.92224	-1119.59924	-475.90643	1629.75159	-1269.94116	-572.20007	1568.40515	-1140.21973	-593.86438	1575.90881	-1209.13049	-603.47260	1413.10925	-1202.38440	-626.64764	1099.63196	-1190.83008	-481.44125	1340.08594	-1190.94360	-431.37225	1176.11560	-1118.32288	-662.43152	1236.58203	-1351.30884	-508.16885	1375.71106	-1423.76807	-480.27911	1182.84668	-1435.01062	-445.58823	1065.31653	-1426.13025	-385.22189	949.97144	-1389.06909	-338.25525	842.87659	-1442.34692	-353.58194	841.57300	-1430.15796	-311.79224	770.44977	-1038.46826	-547.93286	1364.29443	-966.79584	-552.99658	1140.84119	-953.63434	-537.07764	1029.04199	-952.56250	-515.81445	893.79651	-987.28723	-478.68845	800.97107	-946.44330	-513.40179	793.33490	-956.00525	-487.19556	723.45282	-1310.94995	-457.57797	937.77557	-1072.73083	-463.15347	941.46539	-1263.48486	-620.58276	961.84369	-1114.42334	-622.25128	965.71570	-1334.25452	-527.30078	634.88916	-1284.40454	-541.01697	460.80698	-1281.42554	-605.57074	273.66528	-1230.97839	-637.66071	67.61662	-1195.68396	-679.74438	35.56118	-1204.34473	-486.10040	28.87026	-1025.78369	-436.68655	652.92377	-1056.03955	-362.64133	489.29120	-1045.00732	-427.09128	307.97998	-1080.17395	-495.76636	101.33191	-1128.69031	-549.23114	74.84959	-1102.38428	-369.89203	41.45555																																				 
104	1.030	-1249.67395	-440.74197	1621.32739	-1119.03955	-467.83057	1628.65491	-1269.81775	-563.77136	1567.79468	-1140.09119	-585.62146	1574.75085	-1209.34949	-595.05322	1412.20251	-1202.26489	-618.22876	1098.87158	-1191.20654	-473.04315	1339.17114	-1191.57458	-422.92868	1175.21277	-1118.67078	-654.00104	1235.68079	-1351.60291	-499.94571	1374.98706	-1424.57642	-470.55225	1182.85938	-1436.08484	-434.02289	1065.82568	-1426.81128	-370.86035	952.28796	-1389.12109	-320.30496	847.25647	-1442.04272	-336.31265	844.53784	-1429.21057	-292.25839	774.85657	-1038.61108	-539.46265	1363.25806	-966.84918	-545.34869	1139.85840	-953.83423	-530.12012	1027.91992	-952.78992	-510.01120	892.50671	-987.57129	-474.04517	799.14825	-946.50757	-508.42651	792.03674	-956.21838	-483.01804	721.85803	-1311.29041	-449.70712	936.91156	-1073.18140	-454.10904	940.92798	-1263.14929	-612.54602	961.14172	-1114.11560	-613.65204	964.95587	-1334.64771	-521.90106	634.57672	-1284.44470	-537.42072	460.31580	-1281.33801	-603.79175	273.91022	-1230.81360	-637.45001	67.98116	-1195.29468	-679.67035	36.07849	-1204.09631	-486.15509	28.72730	-1025.94617	-427.42160	652.36273	-1057.27295	-352.47290	489.24957	-1046.43726	-408.59586	305.32458	-1082.09045	-465.75647	95.22067	-1130.54639	-518.17255	66.69679	-1105.09717	-337.49945	41.12046																																				 
105	1.040	-1249.14453	-432.42819	1620.68762	-1118.65723	-459.63367	1627.48816	-1269.36438	-555.30560	1566.97131	-1139.97717	-577.43597	1573.55359	-1209.53174	-586.56091	1411.31567	-1202.13684	-609.87701	1098.01746	-1191.46667	-464.57660	1338.09192	-1192.01221	-414.55252	1174.17480	-1118.95837	-645.51569	1234.80261	-1351.89526	-491.64032	1374.22791	-1425.54602	-460.80139	1182.79541	-1437.18774	-422.68301	1066.40149	-1427.35999	-356.68997	954.54767	-1388.98169	-302.83231	851.59369	-1441.63672	-319.32236	847.57074	-1428.17065	-273.15958	779.31061	-1038.86694	-530.79822	1362.10278	-966.92053	-537.70398	1138.82971	-954.01544	-523.02313	1026.69788	-952.97180	-504.15192	891.17804	-988.03534	-469.46033	797.36615	-946.54401	-503.32828	790.70221	-956.49835	-478.71753	720.27057	-1311.51929	-441.84296	936.06531	-1073.57141	-445.55310	940.06830	-1262.83472	-604.45782	960.35095	-1113.77527	-605.09167	964.06378	-1334.25574	-516.00903	633.86804	-1284.54688	-533.53601	459.87161	-1281.24023	-601.89105	274.13983	-1230.46790	-637.26978	68.36591	-1194.27405	-679.88330	36.77676	-1204.10400	-486.05768	28.68567	-1025.06787	-417.82761	651.66394	-1058.56274	-342.78305	488.85318	-1047.94202	-390.29742	302.86368	-1084.40588	-436.25677	89.98679	-1132.98315	-487.38251	59.59700	-1107.85486	-305.57492	41.17969																																				 
106	1.050	-1248.61511	-424.05936	1619.95605	-1118.16687	-451.45538	1626.31409	-1269.55371	-546.87415	1566.20581	-1139.89026	-569.11005	1572.21362	-1209.67957	-577.94189	1410.23779	-1201.96057	-601.48273	1097.05066	-1191.84167	-455.94504	1337.05884	-1192.62732	-406.05283	1173.09387	-1119.18457	-636.93036	1233.83765	-1352.08032	-483.23068	1373.35156	-1426.30164	-451.15060	1182.59351	-1438.08716	-411.49762	1066.72461	-1427.82458	-342.86575	956.73145	-1388.67993	-285.75571	855.80829	-1441.10547	-302.66946	850.55463	-1427.06702	-254.49925	783.79407	-1039.20837	-522.09827	1360.92639	-967.03925	-529.93402	1137.71240	-954.20941	-515.83020	1025.47327	-953.13977	-498.17108	889.73297	-988.58704	-464.75656	795.61908	-946.59406	-497.96814	789.32843	-956.63354	-474.25482	718.68732	-1311.90564	-433.95117	935.19012	-1073.89624	-436.81595	939.04822	-1262.57727	-596.33398	959.41968	-1113.46167	-596.41687	962.99408	-1334.11169	-510.25644	633.35120	-1284.63574	-529.60986	459.37897	-1280.95776	-599.92377	274.38184	-1229.95300	-637.07684	68.82792	-1193.54199	-679.71906	37.48669	-1204.06787	-486.09308	28.52305	-1025.35071	-409.69183	650.40082	-1059.86597	-333.43048	488.21326	-1049.47791	-372.37674	300.63382	-1086.42224	-406.62390	85.54002	-1135.23840	-456.51312	53.64022	-1110.67126	-274.27582	41.46313																																				 
107	1.060	-1248.23596	-415.63165	1619.21350	-1117.66919	-443.32837	1625.11340	-1269.44604	-538.32825	1565.20483	-1139.75842	-560.73145	1570.80188	-1209.77710	-569.23260	1409.15552	-1201.74500	-592.95844	1096.02136	-1192.05664	-447.29739	1335.83850	-1193.08264	-397.50970	1171.85510	-1119.32996	-628.27423	1232.85608	-1352.29370	-474.68607	1372.39307	-1426.97168	-441.57391	1182.30762	-1438.97986	-400.42816	1067.01904	-1428.25000	-329.20212	958.85339	-1388.30591	-269.25928	859.99915	-1440.45190	-286.38278	853.53668	-1425.87390	-236.25378	788.34412	-1039.32141	-513.19037	1359.61523	-967.17578	-522.07867	1136.56812	-954.42682	-508.61948	1024.17761	-953.36157	-492.04547	888.34650	-988.94312	-459.68057	793.88208	-946.55035	-492.64566	787.91516	-957.04413	-469.53757	716.95502	-1312.08130	-426.04868	934.14575	-1074.10730	-428.09897	937.78485	-1262.27295	-588.16461	958.46954	-1113.14050	-587.76648	961.81610	-1333.99426	-504.43338	632.85950	-1284.71594	-525.49530	458.91559	-1280.69434	-597.84644	274.68729	-1229.58008	-636.83490	69.40215	-1192.85938	-679.52527	38.22712	-1204.27673	-486.31985	28.15237	-1025.55444	-402.01440	648.84821	-1061.16101	-324.50034	487.25357	-1051.05920	-354.96378	298.58038	-1088.57629	-377.59772	82.01046	-1137.75366	-426.49600	48.75856	-1113.49780	-243.76538	41.87995																																				 
